<?xml version="1.0" encoding="UTF-8" standalone="no"?>
<!DOCTYPE svg PUBLIC "-//W3C//DTD SVG 1.1//EN"
 "http://www.w3.org/Graphics/SVG/1.1/DTD/svg11.dtd">
<!-- Generated by graphviz version 8.0.5 (0)
 -->
<!-- Pages: 1 -->
<svg width="306pt" height="375pt"
 viewBox="0.00 0.00 306.36 374.75" xmlns="http://www.w3.org/2000/svg" xmlns:xlink="http://www.w3.org/1999/xlink">
<g id="graph0" class="graph" transform="scale(1 1) rotate(0) translate(4 370.75)">
<polygon fill="white" stroke="none" points="-4,4 -4,-370.75 302.36,-370.75 302.36,4 -4,4"/>
<g id="clust1" class="cluster">
<title>cluster4</title>
<path fill="none" stroke="black" d="M168.18,-8C168.18,-8 272.18,-8 272.18,-8 278.18,-8 284.18,-14 284.18,-20 284.18,-20 284.18,-242.25 284.18,-242.25 284.18,-248.25 278.18,-254.25 272.18,-254.25 272.18,-254.25 168.18,-254.25 168.18,-254.25 162.18,-254.25 156.18,-248.25 156.18,-242.25 156.18,-242.25 156.18,-20 156.18,-20 156.18,-14 162.18,-8 168.18,-8"/>
<text text-anchor="middle" x="271.68" y="-15.95" font-family="Times,serif" font-size="14.00">4</text>
</g>
<!-- beta -->
<g id="node1" class="node">
<title>beta</title>
<ellipse fill="none" stroke="black" cx="70.18" cy="-324.5" rx="70.18" ry="42.25"/>
<text text-anchor="middle" x="70.18" y="-337.07" font-family="Times,serif" font-size="14.00">beta</text>
<text text-anchor="middle" x="70.18" y="-319.82" font-family="Times,serif" font-size="14.00">~</text>
<text text-anchor="middle" x="70.18" y="-302.57" font-family="Times,serif" font-size="14.00">HalfNormal</text>
</g>
<!-- mu -->
<g id="node2" class="node">
<title>mu</title>
<polygon fill="none" stroke="black" points="133.93,-233.87 20.43,-233.87 20.43,-174.12 133.93,-174.12 133.93,-233.87"/>
<text text-anchor="middle" x="77.18" y="-216.57" font-family="Times,serif" font-size="14.00">mu</text>
<text text-anchor="middle" x="77.18" y="-199.32" font-family="Times,serif" font-size="14.00">~</text>
<text text-anchor="middle" x="77.18" y="-182.07" font-family="Times,serif" font-size="14.00">Deterministic</text>
</g>
<!-- beta&#45;&gt;mu -->
<g id="edge1" class="edge">
<title>beta&#45;&gt;mu</title>
<path fill="none" stroke="black" d="M72.63,-282.05C73.33,-270.12 74.1,-257.12 74.8,-245.25"/>
<polygon fill="black" stroke="black" points="78.35,-245.49 75.45,-235.3 71.37,-245.08 78.35,-245.49"/>
</g>
<!-- theta -->
<g id="node4" class="node">
<title>theta</title>
<ellipse fill="none" stroke="black" cx="220.18" cy="-204" rx="37.83" ry="42.25"/>
<text text-anchor="middle" x="220.18" y="-216.57" font-family="Times,serif" font-size="14.00">theta</text>
<text text-anchor="middle" x="220.18" y="-199.32" font-family="Times,serif" font-size="14.00">~</text>
<text text-anchor="middle" x="220.18" y="-182.07" font-family="Times,serif" font-size="14.00">Beta</text>
</g>
<!-- beta&#45;&gt;theta -->
<g id="edge3" class="edge">
<title>beta&#45;&gt;theta</title>
<path fill="none" stroke="black" d="M111.96,-290.49C133.6,-273.4 159.86,-252.65 181.1,-235.88"/>
<polygon fill="black" stroke="black" points="182.88,-238.13 188.56,-229.19 178.54,-232.64 182.88,-238.13"/>
</g>
<!-- alpha -->
<g id="node3" class="node">
<title>alpha</title>
<ellipse fill="none" stroke="black" cx="228.18" cy="-324.5" rx="70.18" ry="42.25"/>
<text text-anchor="middle" x="228.18" y="-337.07" font-family="Times,serif" font-size="14.00">alpha</text>
<text text-anchor="middle" x="228.18" y="-319.82" font-family="Times,serif" font-size="14.00">~</text>
<text text-anchor="middle" x="228.18" y="-302.57" font-family="Times,serif" font-size="14.00">HalfNormal</text>
</g>
<!-- alpha&#45;&gt;mu -->
<g id="edge2" class="edge">
<title>alpha&#45;&gt;mu</title>
<path fill="none" stroke="black" d="M186.12,-290.49C166.42,-275.03 142.91,-256.58 122.79,-240.79"/>
<polygon fill="black" stroke="black" points="125.42,-237.62 115.39,-234.2 121.09,-243.13 125.42,-237.62"/>
</g>
<!-- alpha&#45;&gt;theta -->
<g id="edge4" class="edge">
<title>alpha&#45;&gt;theta</title>
<path fill="none" stroke="black" d="M225.38,-282.05C224.84,-274.07 224.27,-265.61 223.71,-257.34"/>
<polygon fill="black" stroke="black" points="227.16,-257.36 222.99,-247.62 220.17,-257.83 227.16,-257.36"/>
</g>
<!-- y -->
<g id="node5" class="node">
<title>y</title>
<ellipse fill="lightgrey" stroke="black" cx="220.18" cy="-83.5" rx="55.86" ry="42.25"/>
<text text-anchor="middle" x="220.18" y="-96.07" font-family="Times,serif" font-size="14.00">y</text>
<text text-anchor="middle" x="220.18" y="-78.82" font-family="Times,serif" font-size="14.00">~</text>
<text text-anchor="middle" x="220.18" y="-61.57" font-family="Times,serif" font-size="14.00">Binomial</text>
</g>
<!-- theta&#45;&gt;y -->
<g id="edge5" class="edge">
<title>theta&#45;&gt;y</title>
<path fill="none" stroke="black" d="M220.18,-161.55C220.18,-153.66 220.18,-145.3 220.18,-137.12"/>
<polygon fill="black" stroke="black" points="223.68,-137.12 220.18,-127.12 216.68,-137.12 223.68,-137.12"/>
</g>
</g>
</svg>
