<?xml version="1.0" encoding="UTF-8" standalone="no"?>
<!-- Created with Inkscape (http://www.inkscape.org/) -->

<svg
   width="118.01538mm"
   height="31.675898mm"
   viewBox="0 0 118.01538 31.675898"
   version="1.1"
   id="svg1"
   inkscape:version="1.3 (0e150ed6c4, 2023-07-21)"
   sodipodi:docname="logo_dp.svg"
   xmlns:inkscape="http://www.inkscape.org/namespaces/inkscape"
   xmlns:sodipodi="http://sodipodi.sourceforge.net/DTD/sodipodi-0.dtd"
   xmlns="http://www.w3.org/2000/svg"
   xmlns:svg="http://www.w3.org/2000/svg">
  <sodipodi:namedview
     id="namedview1"
     pagecolor="#ffffff"
     bordercolor="#000000"
     borderopacity="0.25"
     inkscape:showpageshadow="2"
     inkscape:pageopacity="0.0"
     inkscape:pagecheckerboard="0"
     inkscape:deskcolor="#d1d1d1"
     inkscape:document-units="mm"
     inkscape:zoom="3.8262313"
     inkscape:cx="342.11209"
     inkscape:cy="54.361586"
     inkscape:window-width="1918"
     inkscape:window-height="1078"
     inkscape:window-x="0"
     inkscape:window-y="0"
     inkscape:window-maximized="1"
     inkscape:current-layer="g1" />
  <defs
     id="defs1" />
  <g
     inkscape:label="Layer 1"
     inkscape:groupmode="layer"
     id="layer1"
     transform="translate(-43.950033,-116.7826)">
    <g
       id="g1"
       transform="rotate(90,102.95772,132.62055)">
      <text
         xml:space="preserve"
         style="font-style:normal;font-variant:normal;font-weight:normal;font-stretch:normal;font-size:17.6389px;font-family:'DejaVu Serif';-inkscape-font-specification:'DejaVu Serif';fill:#000000;stroke-width:0.265;fill-opacity:1;opacity:1;stroke-dasharray:none;stroke:#ffffff;stroke-opacity:1"
         x="-191.25789"
         y="99.9786"
         id="text4"
         transform="rotate(-90)"><tspan
           sodipodi:role="line"
           id="tspan4"
           style="font-style:italic;font-variant:normal;font-weight:bold;font-stretch:semi-condensed;font-size:17.6389px;font-family:'DejaVu Serif';-inkscape-font-specification:'DejaVu Serif Bold Italic Semi-Condensed';fill:#000000;fill-opacity:1;stroke-width:0.265;stroke-dasharray:none;stroke:#ffffff;stroke-opacity:1"
           x="-191.25789"
           y="99.9786">Data</tspan></text>
      <path
         id="text4-2"
         style="font-style:normal;font-variant:normal;font-weight:normal;font-stretch:normal;font-size:17.6389px;font-family:'DejaVu Serif';-inkscape-font-specification:'DejaVu Serif';fill:#000000;stroke-width:0.264583"
         transform="rotate(-90)"
         d="m -182.73627,100.2213 -0.18087,1.04231 h 1.48156 l -1.88619,10.77454 h -1.48156 l -0.18087,1.04179 h 6.33036 l 0.18087,-1.04179 h -1.86913 l 0.7493,-4.28088 h 2.12752 c 1.28043,0 2.36012,-0.34147 3.23856,-1.02474 0.88425,-0.68902 1.42685,-1.60754 1.62781,-2.75591 0.20097,-1.14262 -0.0204,-2.05305 -0.66352,-2.73058 -0.63735,-0.68328 -1.59893,-1.02474 -2.8851,-1.02474 z m 70.91771,-1.461555 -0.94782,5.165205 -0.0853,0.015 -0.0362,0.99161 0.005,-0.13646 -1.04612,5.77846 c -0.0632,0.37321 -0.0946,0.70354 -0.0946,0.99063 0,0.52825 0.10588,0.91887 0.31833,1.17151 0.33871,0.39618 1.07389,0.59428 2.20503,0.59428 0.99333,0 1.72237,-0.18391 2.18746,-0.55139 0.47083,-0.37322 0.81281,-1.01918 1.02526,-1.93787 h -1.16272 c -0.0976,0.51677 -0.25011,0.89877 -0.45682,1.14567 -0.20096,0.2469 -0.46796,0.37 -0.80098,0.37 -0.29858,0 -0.48806,-0.0973 -0.56844,-0.29249 -0.0287,-0.0689 -0.0429,-0.18086 -0.0429,-0.33589 0,-0.25839 0.0461,-0.64343 0.13797,-1.15445 l 0.98185,-5.6069 -0.10001,0.1262 0.36507,-2.44373 -0.0842,0.20306 0.76752,-3.98875 z m -66.63735,2.503865 h 0.87023 c 0.67753,0 1.17098,0.24673 1.48104,0.74052 0.3158,0.48806 0.3994,1.14567 0.25012,1.97249 -0.14355,0.83257 -0.45969,1.49827 -0.94775,1.99781 -0.48805,0.4938 -1.06763,0.74104 -1.73943,0.74104 h -0.87023 z m 11.18794,2.41122 c -1.36081,0 -2.5063,0.42507 -3.43648,1.27486 -0.93018,0.84979 -1.52698,2.04139 -1.7911,3.57446 -0.0861,0.46509 -0.1292,0.89572 -0.1292,1.29191 0,0.92443 0.21532,1.67931 0.64596,2.26498 0.61437,0.83256 1.63321,1.24902 3.05718,1.24902 1.18855,0 2.15623,-0.2442 2.90266,-0.73226 0.74644,-0.48805 1.32349,-1.25159 1.73116,-2.29081 h -1.29191 c -0.21245,0.666 -0.53416,1.1742 -0.9648,1.52445 -0.43063,0.35025 -0.94131,0.52503 -1.53272,0.52503 -1.06224,0 -1.59623,-0.60542 -1.60197,-1.81694 0,-0.40767 0.0172,-0.70912 0.0517,-0.90434 3.57136,-0.16077 5.52042,-1.17155 5.8477,-3.03185 0.0344,-0.16652 0.0517,-0.32712 0.0517,-0.48215 0,-0.77514 -0.34451,-1.37551 -1.03353,-1.8004 -0.68328,-0.43064 -1.51871,-0.64596 -2.50631,-0.64596 z m 12.17859,0 c -0.63734,0 -1.20579,0.15503 -1.70532,0.46509 -0.4938,0.30432 -0.93001,0.77549 -1.30897,1.41283 l 0.28422,-1.6278 h -3.99665 l -0.18914,1.04179 h 1.25729 l -1.4211,8.1132 h 2.74763 l 0.81804,-4.65914 c 0.178,-1.03927 0.4911,-1.85192 0.93896,-2.43758 0.45361,-0.58567 0.97898,-0.8785 1.57613,-0.8785 0.39045,0 0.66858,0.12058 0.83509,0.36173 0.12632,0.178 0.18966,0.42777 0.18966,0.74931 0,0.10335 -0.009,0.21532 -0.0258,0.3359 h 0.8785 l 0.48214,-2.73007 c -0.29283,-0.0459 -0.55374,-0.0804 -0.78342,-0.10335 -0.22393,-0.0287 -0.41645,-0.0434 -0.57722,-0.0434 z m 5.4777,0 c -1.1254,0 -2.04139,0.2442 -2.74764,0.73226 -0.7005,0.48231 -1.13975,1.21996 -1.31775,2.2133 -0.0345,0.22393 -0.0517,0.43368 -0.0517,0.6289 0,0.45935 0.12919,0.8758 0.38757,1.24902 0.25838,0.37322 0.79237,0.67719 1.60197,0.91261 l 1.07694,0.31884 c 0.51676,0.14929 0.841,0.30989 0.97307,0.48214 0.13206,0.17226 0.19792,0.3359 0.19792,0.49093 0,0.16077 -0.0111,0.29605 -0.0341,0.40514 -0.14355,0.83256 -0.81838,1.2485 -2.02417,1.2485 -0.61437,0 -1.07389,-0.16617 -1.37821,-0.49919 -0.30431,-0.33877 -0.4563,-0.78968 -0.4563,-1.35237 0,-0.0804 0.003,-0.16347 0.009,-0.2496 h -0.8785 l -0.43925,2.55798 c 1.22295,0.34451 2.34271,0.51677 3.35896,0.51677 1.40101,0 2.47456,-0.2442 3.221,-0.73226 0.75218,-0.4938 1.21726,-1.25734 1.39526,-2.29081 0.0402,-0.23542 0.0605,-0.45378 0.0605,-0.65475 0,-0.49374 -0.14389,-0.93 -0.43098,-1.30896 -0.28135,-0.3847 -0.93597,-0.72921 -1.9637,-1.03353 l -1.06764,-0.31884 c -0.63734,-0.18948 -0.95601,-0.47066 -0.95601,-0.84388 0,-0.13206 0.009,-0.24403 0.0258,-0.33589 0.13781,-0.77515 0.79238,-1.16272 1.96371,-1.16272 1.16559,0 1.74821,0.52537 1.74821,1.57613 0,0.0976 -0.009,0.20096 -0.0258,0.31006 h 0.8785 l 0.41342,-2.30839 c -1.22875,-0.36748 -2.4087,-0.55139 -3.53984,-0.55139 z m 11.67887,0 c -0.57992,0 -1.08807,0.11805 -1.52445,0.35347 -0.43064,0.22967 -0.80403,0.58279 -1.11983,1.05937 l 0.19844,-1.16272 h -3.91914 l -0.18087,1.04179 h 1.18029 l -2.06706,11.78223 h 2.74712 l 0.84439,-4.83175 c 0.14929,0.47657 0.39906,0.83274 0.74931,1.06815 0.356,0.22968 0.82108,0.34469 1.39527,0.34469 1.17707,0 2.17615,-0.43069 2.99723,-1.29191 0.82682,-0.86128 1.37195,-2.04122 1.63608,-3.53984 0.0861,-0.49954 0.12919,-0.96463 0.12919,-1.39526 0,-0.85554 -0.17479,-1.56787 -0.52504,-2.13631 -0.5225,-0.86127 -1.36959,-1.29191 -2.54093,-1.29191 z m 9.14673,0 c -1.36081,0 -2.50631,0.42507 -3.43648,1.27486 -0.93018,0.84979 -1.5275,2.04139 -1.79162,3.57446 -0.0861,0.46509 -0.12919,0.89572 -0.12919,1.29191 0,0.92443 0.21531,1.67931 0.64595,2.26498 0.61438,0.83256 1.63372,1.24902 3.0577,1.24902 1.1885,0 2.15622,-0.2442 2.90266,-0.73226 0.74644,-0.48805 1.32349,-1.25159 1.73116,-2.29081 h -1.29191 c -0.21245,0.666 -0.53416,1.1742 -0.9648,1.52445 -0.43063,0.35025 -0.94183,0.52503 -1.53324,0.52503 -1.06224,0 -1.59623,-0.60542 -1.60197,-1.81694 0,-0.40767 0.0172,-0.70912 0.0517,-0.90434 3.57141,-0.16077 5.52094,-1.17155 5.84822,-3.03185 0.0345,-0.16652 0.0517,-0.32712 0.0517,-0.48215 0,-0.77514 -0.34451,-1.37551 -1.03353,-1.8004 -0.68328,-0.43064 -1.51871,-0.64596 -2.50631,-0.64596 z m 10.21488,0 c -1.41249,0 -2.59243,0.42507 -3.53983,1.27486 -0.94166,0.84979 -1.54455,2.03278 -1.80868,3.54862 -0.0804,0.44212 -0.12092,0.85553 -0.12092,1.24023 0,0.95315 0.23559,1.72829 0.70642,2.32544 0.65451,0.84405 1.71697,1.26608 3.18688,1.26608 1.04501,0 1.9149,-0.25586 2.60966,-0.76688 0.7005,-0.51677 1.24006,-1.29753 1.61902,-2.34249 h -1.29191 c -0.18948,0.68896 -0.48535,1.21743 -0.88728,1.58491 -0.39619,0.36748 -0.86989,0.55087 -1.4211,0.55087 -0.71199,0 -1.17403,-0.2984 -1.38648,-0.89555 -0.0976,-0.27561 -0.14625,-0.63734 -0.14625,-1.08521 0,-0.51097 0.0628,-1.1367 0.18914,-1.8774 0.2469,-1.41823 0.58279,-2.41483 1.00769,-2.98896 0.42489,-0.57419 1.01917,-0.86093 1.78284,-0.86093 0.5914,0 1.01647,0.18643 1.27485,0.55965 0.21819,0.3158 0.32712,0.76671 0.32712,1.35237 0,0.12058 -0.006,0.24673 -0.0171,0.37879 h 0.86972 l 0.43925,-2.54093 c -0.5627,-0.24115 -1.12506,-0.42202 -1.68776,-0.5426 -0.56264,-0.12058 -1.13114,-0.18087 -1.70532,-0.18087 z m 32.125173,0 c -1.360802,0 -2.506312,0.42507 -3.436482,1.27486 -0.930176,0.84979 -1.526982,2.04139 -1.791106,3.57446 -0.08613,0.46509 -0.129191,0.89572 -0.129191,1.29191 0,0.92443 0.215319,1.67931 0.645956,2.26498 0.61437,0.83256 1.633215,1.24902 3.057177,1.24902 1.188553,0 2.156229,-0.2442 2.902666,-0.73226 0.746432,-0.48805 1.323496,-1.25159 1.73116,-2.29081 h -1.291911 c -0.212442,0.666 -0.534162,1.1742 -0.964799,1.52445 -0.430631,0.35025 -0.941315,0.52503 -1.532723,0.52503 -1.062232,0 -1.596227,-0.60542 -1.601969,-1.81694 0,-0.40767 0.01722,-0.70912 0.05168,-0.90434 3.5714,-0.16077 5.520427,-1.17155 5.847705,-3.03185 0.03445,-0.16652 0.05168,-0.32712 0.05168,-0.48215 0,-0.77514 -0.34451,-1.37551 -1.033529,-1.8004 -0.683272,-0.43064 -1.518718,-0.64596 -2.506307,-0.64596 z m 9.29349,0 c -1.125393,0 -2.041397,0.2442 -2.747636,0.73226 -0.700498,0.48231 -1.139753,1.21996 -1.317749,2.2133 -0.03445,0.22393 -0.05168,0.43368 -0.05168,0.6289 0,0.45935 0.129191,0.8758 0.387573,1.24902 0.258377,0.37322 0.792377,0.67719 1.601969,0.91261 l 1.07642,0.31884 c 0.516764,0.14929 0.841522,0.30989 0.973584,0.48214 0.132062,0.17226 0.197921,0.3359 0.197921,0.49093 0,0.16077 -0.01166,0.29605 -0.03462,0.40514 -0.143546,0.83256 -0.817876,1.2485 -2.023649,1.2485 -0.614376,0 -1.073894,-0.16617 -1.378211,-0.49919 -0.304311,-0.33877 -0.456303,-0.78968 -0.456303,-1.35237 0,-0.0804 0.0025,-0.16347 0.0083,-0.2496 h -0.8785 l -0.439249,2.55798 c 1.222998,0.34451 2.34267,0.51677 3.358968,0.51677 1.400995,0 2.475076,-0.2442 3.221508,-0.73226 0.752179,-0.4938 1.217268,-1.25734 1.395264,-2.29081 0.04019,-0.23542 0.05994,-0.45378 0.05994,-0.65475 0,-0.49374 -0.143374,-0.93 -0.430465,-1.30896 -0.281349,-0.3847 -0.935923,-0.72921 -1.963704,-1.03353 l -1.068152,-0.31884 c -0.637343,-0.18948 -0.956014,-0.47066 -0.956014,-0.84388 0,-0.13206 0.0086,-0.24403 0.02584,-0.33589 0.137804,-0.77515 0.792382,-1.16272 1.963704,-1.16272 1.165586,0 1.748731,0.52537 1.748731,1.57613 0,0.0976 -0.0086,0.20096 -0.02584,0.31006 h 0.878499 l 0.413411,-2.30839 c -1.22874,-0.36748 -2.408701,-0.55139 -3.539835,-0.55139 z m -16.898193,0.23255 -0.189653,1.05936 h 0.913123 c -0.338768,1.45843 -0.887462,2.77365 -1.645378,3.94498 -0.83256,1.22875 -1.314878,1.84278 -1.44694,1.84278 l -1.266073,-6.82955 h -3.350179 l -0.18087,1.04179 h 0.90434 l 1.498613,8.1132 h 2.205033 c 0.918687,-0.94166 1.871668,-2.3197 2.859257,-4.13411 1.039265,-1.91777 1.552992,-3.59122 1.541508,-5.02088 z m -12.55737,0.0176 -0.18087,1.04179 h 1.17099 l -1.4211,8.1132 h 3.91914 l 0.18086,-1.04179 h -1.1715 l 1.41232,-8.1132 z m -60.84073,0.72347 c 0.64308,0 0.96479,0.42202 0.96479,1.26607 0,0.18374 -0.0172,0.38436 -0.0517,0.60255 -0.2469,1.39521 -1.15985,2.09289 -2.73885,2.09289 h -0.17209 c 0.26413,-1.61345 0.53974,-2.67535 0.82683,-3.18637 0.29283,-0.51676 0.68293,-0.77514 1.17099,-0.77514 z m 38.48188,0 c 0.64309,0 0.9648,0.42202 0.9648,1.26607 0,0.18374 -0.0172,0.38436 -0.0517,0.60255 -0.2469,1.39521 -1.1599,2.09289 -2.73885,2.09289 h -0.1726 c 0.26412,-1.61345 0.53973,-2.67535 0.82682,-3.18637 0.29283,-0.51676 0.68345,-0.77514 1.1715,-0.77514 z m 42.340056,0 c 0.643079,0 0.964799,0.42202 0.964799,1.26607 0,0.18374 -0.01723,0.38436 -0.05168,0.60255 -0.246893,1.39521 -1.159854,2.09289 -2.738851,2.09289 h -0.172082 c 0.264124,-1.61345 0.539732,-2.67535 0.826823,-3.18637 0.292833,-0.51676 0.682933,-0.77514 1.170988,-0.77514 z m -52.382336,0.37 c 0.5627,0 0.91582,0.25281 1.05937,0.75809 0.0517,0.18948 0.0775,0.43925 0.0775,0.74931 0,0.49954 -0.0689,1.15715 -0.2067,1.97249 -0.22967,1.31488 -0.50528,2.22479 -0.82682,2.73007 -0.3158,0.50528 -0.75505,0.75809 -1.31775,0.75809 -0.55122,0 -0.90738,-0.23863 -1.06815,-0.7152 -0.0746,-0.22393 -0.11214,-0.50815 -0.11214,-0.85266 0,-0.40193 0.0491,-0.88981 0.14676,-1.464 l 0.1633,-0.90433 c 0.18373,-1.06798 0.43959,-1.84009 0.76687,-2.31666 0.33303,-0.47657 0.77228,-0.7152 1.31775,-0.7152 z"
         sodipodi:nodetypes="ccccccccccscccscccccccscsccccscsccccccccscccsccsscscscccsscccscsscccccccccccscsccccccsccsscccscscscccsccscccscsscccsssccccccccccsccscssscscssccsscccscsscccscsccccscsccscscccsccsscscssccsscccscsssccssccsscscscccsccscccscsscccsscccccccccccccccccccccccsscsccsssscsccsssscsccssscsccscscccss" />
      <path
         style="opacity:1;fill:#000000;fill-opacity:1;stroke:#ffffff;stroke-width:0.225;stroke-linecap:round;stroke-dasharray:none;stroke-opacity:1"
         d="m 101.64645,190.75948 -0.078,-6.8994"
         id="path1" />
      <path
         style="opacity:1;fill:#000000;fill-opacity:1;stroke:#000000;stroke-width:0.825;stroke-linecap:round;stroke-dasharray:none;stroke-opacity:1"
         d="m 100.88605,171.94783 0.0743,-20.89646"
         id="path2" />
      <path
         style="opacity:1;fill:#000000;fill-opacity:1;stroke:#000000;stroke-width:0.825;stroke-linecap:round;stroke-dasharray:none;stroke-opacity:1"
         d="m 100.79847,190.69474 0.0133,-6.59363"
         id="path3" />
      <path
         style="opacity:1;fill:#000000;fill-opacity:1;stroke:#000000;stroke-width:0.825;stroke-linecap:round;stroke-dasharray:none;stroke-opacity:1"
         d="m 114.17383,184.91273 0.043,-38.58902"
         id="path4" />
      <path
         style="opacity:1;fill:#000000;fill-opacity:1;stroke:#000000;stroke-width:0.825;stroke-linecap:round;stroke-dasharray:none;stroke-opacity:1"
         d="m 114.15726,140.71961 0.004,-65.773099"
         id="path5" />
      <path
         style="opacity:1;fill:#808080;fill-opacity:0;stroke:#000000;stroke-width:0.825;stroke-linecap:round;stroke-dasharray:none;stroke-opacity:1"
         d="m 88.334447,114.63157 12.669533,-0.0396 0.15947,-21.668722"
         id="path17"
         sodipodi:nodetypes="ccc" />
      <ellipse
         style="opacity:1;fill:#467fb4;fill-opacity:1;stroke:#000000;stroke-width:0;stroke-linecap:round;stroke-dasharray:none;stroke-opacity:1"
         id="path18"
         cx="-104.14987"
         cy="95.996803"
         transform="rotate(-90)"
         rx="3.5365376"
         ry="3.3689625" />
      <ellipse
         style="opacity:1;fill:#467fb4;fill-opacity:1;stroke:#000000;stroke-width:0;stroke-linecap:round;stroke-dasharray:none;stroke-opacity:1"
         id="path19"
         cx="-97.564514"
         cy="91.209778"
         transform="rotate(-90)"
         rx="2.1669846"
         ry="2.1510093"
         inkscape:transform-center-x="-1.5098675"
         inkscape:transform-center-y="0.16343111" />
      <ellipse
         style="opacity:1;fill:#467fb4;fill-opacity:1;stroke:#000000;stroke-width:0;stroke-linecap:round;stroke-dasharray:none;stroke-opacity:1"
         id="path20"
         cx="-96.592812"
         cy="97.166397"
         transform="rotate(-90)"
         rx="1.257128"
         ry="1.3142011" />
    </g>
  </g>
</svg>
