<svg
   xmlns:svg="http://www.w3.org/2000/svg"
   xmlns="http://www.w3.org/2000/svg"
   version="1.1"
   width="230"
   height="70"
   id="svg2">
  <defs
     id="defs4" />
  <path
     d="m 123.23919,51.33137 c -6.17563,-4.36261 -7.16003,-8.34173 -2.72411,-11.01139 1.88009,-1.13148 2.1637,-1.55605 0.82569,-1.23608 -1.1209,0.26805 -4.16333,0.79179 -6.76092,1.16386 -2.70088,0.38687 -5.48137,1.56236 -6.49441,2.7456 -1.62904,1.90271 -1.68988,3.26007 -0.38578,8.60729 0.29053,1.19127 -0.37456,1.55771 -2.53194,1.39499 -3.3359,-0.2516 -5.93041,-2.42394 -8.84153,-7.40284 -3.81283,-6.52114 0.68003,-11.31726 12.10195,-12.91884 2.97273,-0.41684 6.1192,-1.51285 6.99214,-2.43557 1.43689,-1.51884 1.32657,-1.91462 -1.1651,-4.18011 -4.20059,-3.81924 -2.74523,-4.60392 4.28333,-2.30943 6.77332,2.21116 7.02279,2.53658 5.19513,6.7766 -1.35832,3.15122 -2.03928,3.4393 -11.41538,4.82938 -7.69743,1.14119 -10.84809,3.29114 -10.84809,7.40252 l 0,2.67111 2.06458,-2.77439 c 2.53509,-3.40663 2.932,-3.53907 16.67711,-5.56478 11.84032,-1.74499 14.11273,-2.8085 13.64936,-6.38806 -0.36803,-2.84302 2.8188,-2.55169 5.80751,0.53091 2.78831,2.87588 1.33587,5.0218 -6.13131,9.05877 -6.26221,3.38552 -7.12927,4.43301 -5.67718,6.85851 0.71919,1.20131 1.4208,1.06116 3.8047,-0.76002 1.60761,-1.22811 5.44495,-3.22027 8.52744,-4.42702 10.62096,-4.15794 14.11838,-9.74381 7.11832,-11.36895 -3.81117,-0.88481 -5.96808,-3.47402 -3.67037,-4.40601 0.90169,-0.36575 2.90219,-0.73501 4.44553,-0.82058 1.54335,-0.0855 3.50303,-1.04014 4.35484,-2.12126 1.49348,-1.89548 1.64563,-1.88514 4.26124,0.28964 l 2.71246,2.2553 0.32429,-2.89936 c 0.4591,-4.10459 4.93173,-5.58277 9.6682,-3.1953 3.40812,1.71791 3.5315,1.69684 5.73114,-0.97857 5.41493,-6.5861 13.83398,-4.05936 26.18902,7.85993 7.90297,7.62422 10.19572,11.32427 10.19572,16.45383 0,2.43938 0.54992,3.53769 1.9675,3.92955 1.16986,0.32336 1.74533,1.15583 1.41948,2.0534 -0.68052,1.87455 -13.57704,2.18951 -13.57704,0.33158 0,-0.64788 0.90193,-1.42727 2.00427,-1.73198 7.99389,-2.20966 -2.10462,-18.51047 -15.95248,-25.75015 -10.18859,-5.3266 -13.00139,-0.25276 -3.89068,7.01818 5.59674,4.46656 9.68685,10.90017 9.68685,15.23712 0,1.39212 0.80338,2.52006 2.03801,2.86133 2.5126,0.69454 2.6738,3.19885 0.25475,3.95765 -3.22871,1.01276 -14.00477,1.03657 -14.32622,0.0317 -0.17319,-0.54144 0.74151,-1.24803 2.03266,-1.57021 2.85673,-0.71284 3.32621,-2.76995 1.90524,-8.348 -1.86014,-7.30196 -7.66802,-13.07996 -16.29624,-16.21243 -5.35632,-1.94459 -6.18251,0.0139 -2.21008,5.23899 3.16069,4.15734 3.30407,4.73981 2.98764,12.13708 l -0.33239,7.77014 2.80226,0.34083 c 1.54125,0.18745 2.80227,0.75482 2.80227,1.26082 0,1.99181 -20.13369,3.56503 -20.62389,1.61153 -0.14615,-0.58241 0.76602,-1.21383 2.02704,-1.40313 1.48874,-0.22349 2.29276,-1.08592 2.29276,-2.45933 0,-1.16332 1.14486,-4.50325 2.54414,-7.42206 3.56094,-7.42794 1.85362,-11.04242 -6.36541,-13.47592 -2.29379,-0.67914 -3.21865,0.88857 -1.27376,2.15913 0.56045,0.36614 1.01901,1.81584 1.01901,3.22158 0,3.03845 -3.04766,5.50251 -12.02415,9.72168 -6.85872,3.22376 -8.59395,5.25024 -7.6753,8.96353 0.93907,3.79582 -5.40027,3.15073 -11.51982,-1.17226 z M 17.91171,51.28977 c -2.09079,-1.11306 -2.6032,-2.26886 -2.8581,-6.44683 -0.35444,-5.80937 1.10369,-6.71596 2.7539,-1.71223 1.41027,4.27621 3.84543,6.23784 7.79769,6.28141 3.64144,0.0402 5.55358,-1.63363 5.55358,-4.86126 0,-2.87531 -2.63486,-5.47089 -7.1992,-7.09186 -7.25659,-2.57707 -9.98699,-7.39264 -7.60636,-13.41519 1.75407,-4.43752 6.42457,-6.91099 13.04956,-6.91099 6.09228,0 8.3124,1.88173 7.40012,6.27216 -0.8825,4.24718 -1.60503,4.27803 -4.46399,0.19055 -3.59494,-5.13971 -11.37019,-3.6979 -11.37019,2.10845 0,1.94263 5.41062,5.43138 8.42338,5.43138 2.76316,0 6.77642,4.34827 7.43427,8.05485 0.89019,5.01575 -1.08028,10.74126 -4.21651,12.2517 -3.39008,1.63272 -11.50319,1.54873 -14.69815,-0.15214 z m 23.43713,-1.30484 c 0,-0.88862 0.68782,-1.61567 1.5285,-1.61567 1.19424,0 1.53139,-1.47226 1.54166,-6.73199 0.007,-3.7026 0.92494,-9.80664 2.03935,-13.56453 2.08292,-7.02374 1.96578,-8.78568 -0.58413,-8.78568 -2.70742,0 -1.50344,-1.97591 1.58865,-2.60721 1.68136,-0.34329 4.43267,-0.90502 6.11403,-1.2483 2.35559,-0.48093 3.05702,-0.23378 3.05702,1.07712 0,2.09066 0.19485,2.09417 4.7427,0.0855 4.9727,-2.19622 14.52112,-2.10641 17.58965,0.16544 2.09192,1.5488 3.05049,1.60645 7.34896,0.44195 6.53742,-1.77104 12.31802,-0.64486 16.15943,3.14821 4.96372,4.90124 4.25188,5.93489 -6.60903,9.59681 -8.34816,2.81473 -13.75657,7.56959 -13.75657,12.09424 0,3.1207 2.3059,6.32835 4.54929,6.32835 0.74068,0 1.61064,0.72706 1.93325,1.61568 0.47663,1.31293 -0.44203,1.61568 -4.90267,1.61568 -3.01906,0 -6.21454,-0.29422 -7.10106,-0.6538 -1.70975,-0.69351 -2.2589,-3.65468 -0.67776,-3.65468 0.51374,0 0.93216,-2.30234 0.92979,-5.11631 -0.004,-4.66238 0.37877,-5.47645 4.31317,-9.17537 2.37461,-2.23249 5.50999,-4.3605 6.9675,-4.72891 4.28285,-1.08259 8.25457,-3.54203 8.25457,-5.11156 0,-2.28009 -5.38131,-4.11584 -9.60816,-3.27766 -4.16183,0.82529 -14.87403,8.64986 -17.38272,12.69695 -2.216,3.57492 -3.69084,9.41313 -2.97782,11.7878 0.32556,1.08424 1.69907,2.41629 3.05225,2.9601 3.99032,1.60364 2.84788,2.89691 -3.27314,3.7053 -4.51987,0.59693 -6.068,0.40359 -7.31396,-0.91343 -1.42799,-1.50943 -1.41556,-1.73754 0.12893,-2.36401 1.19814,-0.48599 1.70942,-1.9579 1.70942,-4.92121 0,-5.79818 2.12547,-10.67836 7.17046,-16.46365 5.51782,-6.32751 5.01057,-8.67761 -1.70043,-7.87804 -6.1535,0.73314 -9.44511,3.41292 -12.85782,10.46787 -2.08146,4.30291 -2.80226,7.3612 -2.80226,11.88967 0,5.49373 0.25762,6.22075 2.60497,7.35127 4.10885,1.97888 1.9304,3.39967 -5.21263,3.39967 -5.15479,0 -6.56339,-0.34675 -6.56339,-1.61568 z"
     id="path3006"
     style="fill:#000000" />
</svg>
