<?xml version="1.0" encoding="UTF-8" standalone="no"?>
<!DOCTYPE svg PUBLIC "-//W3C//DTD SVG 1.1//EN"
 "http://www.w3.org/Graphics/SVG/1.1/DTD/svg11.dtd">
<!-- Generated by graphviz version 8.1.0 (0)
 -->
<!-- Pages: 1 -->
<svg width="222pt" height="446pt"
 viewBox="0.00 0.00 221.93 445.75" xmlns="http://www.w3.org/2000/svg" xmlns:xlink="http://www.w3.org/1999/xlink">
<g id="graph0" class="graph" transform="scale(1 1) rotate(0) translate(4 441.75)">
<polygon fill="white" stroke="none" points="-4,4 -4,-441.75 217.93,-441.75 217.93,4 -4,4"/>
<g id="clust1" class="cluster">
<title>cluster16</title>
<path fill="none" stroke="black" d="M53.97,-8C53.97,-8 159.97,-8 159.97,-8 165.97,-8 171.97,-14 171.97,-20 171.97,-20 171.97,-313.25 171.97,-313.25 171.97,-319.25 165.97,-325.25 159.97,-325.25 159.97,-325.25 53.97,-325.25 53.97,-325.25 47.97,-325.25 41.97,-319.25 41.97,-313.25 41.97,-313.25 41.97,-20 41.97,-20 41.97,-14 47.97,-8 53.97,-8"/>
<text text-anchor="middle" x="154.97" y="-15.95" font-family="Times,serif" font-size="14.00">16</text>
</g>
<!-- beta -->
<g id="node1" class="node">
<title>beta</title>
<ellipse fill="none" stroke="black" cx="48.97" cy="-395.5" rx="48.97" ry="42.25"/>
<text text-anchor="middle" x="48.97" y="-408.07" font-family="Times,serif" font-size="14.00">beta</text>
<text text-anchor="middle" x="48.97" y="-390.82" font-family="Times,serif" font-size="14.00">~</text>
<text text-anchor="middle" x="48.97" y="-373.57" font-family="Times,serif" font-size="14.00">Normal</text>
</g>
<!-- log_theta -->
<g id="node4" class="node">
<title>log_theta</title>
<polygon fill="none" stroke="black" points="163.72,-317.25 50.22,-317.25 50.22,-257.5 163.72,-257.5 163.72,-317.25"/>
<text text-anchor="middle" x="106.97" y="-299.95" font-family="Times,serif" font-size="14.00">log_theta</text>
<text text-anchor="middle" x="106.97" y="-282.7" font-family="Times,serif" font-size="14.00">~</text>
<text text-anchor="middle" x="106.97" y="-265.45" font-family="Times,serif" font-size="14.00">Deterministic</text>
</g>
<!-- beta&#45;&gt;log_theta -->
<g id="edge1" class="edge">
<title>beta&#45;&gt;log_theta</title>
<path fill="none" stroke="black" d="M69.58,-356.78C74.85,-347.13 80.53,-336.74 85.83,-327.04"/>
<polygon fill="black" stroke="black" points="89.25,-329.08 90.98,-318.63 83.11,-325.72 89.25,-329.08"/>
</g>
<!-- alpha -->
<g id="node2" class="node">
<title>alpha</title>
<ellipse fill="none" stroke="black" cx="164.97" cy="-395.5" rx="48.97" ry="42.25"/>
<text text-anchor="middle" x="164.97" y="-408.07" font-family="Times,serif" font-size="14.00">alpha</text>
<text text-anchor="middle" x="164.97" y="-390.82" font-family="Times,serif" font-size="14.00">~</text>
<text text-anchor="middle" x="164.97" y="-373.57" font-family="Times,serif" font-size="14.00">Normal</text>
</g>
<!-- alpha&#45;&gt;log_theta -->
<g id="edge2" class="edge">
<title>alpha&#45;&gt;log_theta</title>
<path fill="none" stroke="black" d="M144.36,-356.78C139.08,-347.13 133.4,-336.74 128.1,-327.04"/>
<polygon fill="black" stroke="black" points="130.82,-325.72 122.96,-318.63 124.68,-329.08 130.82,-325.72"/>
</g>
<!-- theta -->
<g id="node3" class="node">
<title>theta</title>
<polygon fill="none" stroke="black" points="163.72,-221.5 50.22,-221.5 50.22,-161.75 163.72,-161.75 163.72,-221.5"/>
<text text-anchor="middle" x="106.97" y="-204.2" font-family="Times,serif" font-size="14.00">theta</text>
<text text-anchor="middle" x="106.97" y="-186.95" font-family="Times,serif" font-size="14.00">~</text>
<text text-anchor="middle" x="106.97" y="-169.7" font-family="Times,serif" font-size="14.00">Deterministic</text>
</g>
<!-- y -->
<g id="node5" class="node">
<title>y</title>
<ellipse fill="lightgrey" stroke="black" cx="106.97" cy="-83.5" rx="55.86" ry="42.25"/>
<text text-anchor="middle" x="106.97" y="-96.07" font-family="Times,serif" font-size="14.00">y</text>
<text text-anchor="middle" x="106.97" y="-78.82" font-family="Times,serif" font-size="14.00">~</text>
<text text-anchor="middle" x="106.97" y="-61.57" font-family="Times,serif" font-size="14.00">Binomial</text>
</g>
<!-- theta&#45;&gt;y -->
<g id="edge4" class="edge">
<title>theta&#45;&gt;y</title>
<path fill="none" stroke="black" d="M106.97,-161.34C106.97,-153.75 106.97,-145.34 106.97,-136.95"/>
<polygon fill="black" stroke="black" points="110.47,-137 106.97,-127 103.47,-137 110.47,-137"/>
</g>
<!-- log_theta&#45;&gt;theta -->
<g id="edge3" class="edge">
<title>log_theta&#45;&gt;theta</title>
<path fill="none" stroke="black" d="M106.97,-257.23C106.97,-249.46 106.97,-240.94 106.97,-232.71"/>
<polygon fill="black" stroke="black" points="110.47,-232.76 106.97,-222.76 103.47,-232.76 110.47,-232.76"/>
</g>
</g>
</svg>
