<?xml version="1.0" encoding="UTF-8" standalone="no"?>
<svg xmlns="http://www.w3.org/2000/svg" xmlns:xlink="http://www.w3.org/1999/xlink" width="174" height="211">
  <path fill="#fff" stroke="#000" stroke-width="6" d="M0 0h174v211H0z"/>
  <path id="a" d="m0 0 17.536 3 3.982 2.637C33.433 13.528 40.57 23.741 46.579 41.5c3.686 10.891 3.013 16.99-3.363 30.482-1.424 3.015-2.779 7.767-3.011 10.56-.357 4.306.115 6.143 3.103 12.076 1.938 3.848 4.307 7.646 5.265 8.44 2.504 2.074 14.876 17.026 16.304 19.704 1.58 2.963-.38 7.211-6.397 13.861-4.542 5.02-5.519 8.27-3.091 10.285 3.438 2.853 2.307 12.055-2.15 17.504-2.039 2.493-2.289 3.588-1.737 7.601.606 4.41.427 4.92-3.015 8.569-3.524 3.737-3.635 4.077-3 9.162.747 5.976-.566 11.112-3.525 13.79-2.459 2.226-2.903 4.466-2.903 4.466L0 211z"/>
  <use xlink:href="#a" transform="matrix(-1 0 0 1 174 0)"/>
</svg>