<?xml version="1.0" encoding="UTF-8" standalone="no"?>
<!DOCTYPE svg PUBLIC "-//W3C//DTD SVG 1.1//EN"
 "http://www.w3.org/Graphics/SVG/1.1/DTD/svg11.dtd">
<!-- Generated by graphviz version 8.0.5 (0)
 -->
<!-- Pages: 1 -->
<svg width="152pt" height="270pt"
 viewBox="0.00 0.00 152.00 270.25" xmlns="http://www.w3.org/2000/svg" xmlns:xlink="http://www.w3.org/1999/xlink">
<g id="graph0" class="graph" transform="scale(1 1) rotate(0) translate(4 266.25)">
<polygon fill="white" stroke="none" points="-4,4 -4,-266.25 148,-266.25 148,4 -4,4"/>
<g id="clust1" class="cluster">
<title>cluster4</title>
<path fill="none" stroke="black" d="M20,-8C20,-8 124,-8 124,-8 130,-8 136,-14 136,-20 136,-20 136,-242.25 136,-242.25 136,-248.25 130,-254.25 124,-254.25 124,-254.25 20,-254.25 20,-254.25 14,-254.25 8,-248.25 8,-242.25 8,-242.25 8,-20 8,-20 8,-14 14,-8 20,-8"/>
<text text-anchor="middle" x="123.5" y="-15.95" font-family="Times,serif" font-size="14.00">4</text>
</g>
<!-- theta -->
<g id="node1" class="node">
<title>theta</title>
<ellipse fill="none" stroke="black" cx="72" cy="-204" rx="37.83" ry="42.25"/>
<text text-anchor="middle" x="72" y="-216.57" font-family="Times,serif" font-size="14.00">theta</text>
<text text-anchor="middle" x="72" y="-199.32" font-family="Times,serif" font-size="14.00">~</text>
<text text-anchor="middle" x="72" y="-182.07" font-family="Times,serif" font-size="14.00">Beta</text>
</g>
<!-- y -->
<g id="node2" class="node">
<title>y</title>
<ellipse fill="lightgrey" stroke="black" cx="72" cy="-83.5" rx="55.86" ry="42.25"/>
<text text-anchor="middle" x="72" y="-96.07" font-family="Times,serif" font-size="14.00">y</text>
<text text-anchor="middle" x="72" y="-78.82" font-family="Times,serif" font-size="14.00">~</text>
<text text-anchor="middle" x="72" y="-61.57" font-family="Times,serif" font-size="14.00">Binomial</text>
</g>
<!-- theta&#45;&gt;y -->
<g id="edge1" class="edge">
<title>theta&#45;&gt;y</title>
<path fill="none" stroke="black" d="M72,-161.55C72,-153.66 72,-145.3 72,-137.12"/>
<polygon fill="black" stroke="black" points="75.5,-137.12 72,-127.12 68.5,-137.12 75.5,-137.12"/>
</g>
</g>
</svg>
